<svg xmlns="http://www.w3.org/2000/svg" xmlns:xlink="http://www.w3.org/1999/xlink" version="1.1" x="0px" y="0px" viewBox="0 0 100 125" style="enable-background:new 0 0 100 100;" xml:space="preserve"><path d="M89,10.0019531H75.78125c-0.5527344,0-1,0.4472656-1,1v6.8662109H57.9716797v-6.8798828c0-0.5527344-0.4472656-1-1-1H40.875  c-0.5527344,0-1,0.4472656-1,1v4.4262695L23.2783203,12.640625c-0.2597656-0.0410156-0.5302734,0.0195312-0.7460938,0.171875  c-0.2158203,0.1542969-0.3613281,0.3876953-0.4052734,0.6494141L10.0136719,85.9384766  c-0.0908203,0.5449219,0.2763672,1.0605469,0.8212891,1.1513672l17.3300781,2.8964844  C28.2197266,89.9951172,28.2753906,90,28.3300781,90c0.2070312,0,0.4101562-0.0644531,0.5810547-0.1855469  c0.2158203-0.1542969,0.3613281-0.3876953,0.4052734-0.6494141L39.875,25.9905396V89c0,0.5527344,0.4472656,1,1,1H89  c0.5527344,0,1-0.4472656,1-1V11.0019531C90,10.4492188,89.5527344,10.0019531,89,10.0019531z M29.9768066,73.081665  l-15.3574219-2.5667725l1.5644531-9.3601685l15.3572998,2.5665894L29.9768066,73.081665z M27.5087891,87.8486328  l-15.3574219-2.5664062l2.1384277-12.7946167l15.3572998,2.5667725L27.5087891,87.8486328z M31.8708496,61.7485962  l-15.3574219-2.5665894l7.4211426-44.4036865l15.3574219,2.5664062L31.8708496,61.7485962z M57.9716797,54.4404297H74.78125  v10.1972656H57.9716797V54.4404297z M76.78125,29.1572266H88v41.6738281H76.78125V29.1572266z M88,12.0019531v15.1552734H76.78125  V12.0019531H88z M74.78125,19.8681641v32.5722656H57.9716797V19.8681641H74.78125z M55.9716797,11.9882812V88H41.875V11.9882812  H55.9716797z M57.9716797,88V66.6376953H74.78125V88H57.9716797z M76.78125,88V72.8310547H88V88H76.78125z"/><text x="0" y="115" fill="#000000" font-size="5px" font-weight="bold" font-family="'Helvetica Neue', Helvetica, Arial-Unicode, Arial, Sans-serif">Created by Made by Made</text><text x="0" y="120" fill="#000000" font-size="5px" font-weight="bold" font-family="'Helvetica Neue', Helvetica, Arial-Unicode, Arial, Sans-serif">from the Noun Project</text></svg>